<svg width="110px" height="110px" viewBox="0 0 110 110" version="1.1"
  xmlns="http://www.w3.org/2000/svg" xmlns:xlink="http://www.w3.org/1999/xlink">
  <g id="Page-1" stroke="none" stroke-width="1" fill="none" fill-rule="evenodd">
    <g id="Group-2-Copy-2" fill="#C7D2AB">
      <path
        d="M55,0 C85.3756612,0 110,24.6243388 110,55 C110,85.3756612 85.3756612,110 55,110 C24.6243388,110 0,85.3756612 0,55 C0,24.6243388 24.6243388,0 55,0 Z M55,12 C31.2517558,12 12,31.2517558 12,55 C12,78.7482442 31.2517558,98 55,98 C78.7482442,98 98,78.7482442 98,55 C98,31.2517558 78.7482442,12 55,12 Z M55,13.5 C77.9198171,13.5 96.5,32.0801829 96.5,55 C96.5,77.9198171 77.9198171,96.5 55,96.5 C32.0801829,96.5 13.5,77.9198171 13.5,55 C13.5,32.0801829 32.0801829,13.5 55,13.5 Z M72.2464858,46.691207 C70.6320209,49.9006773 70.845454,53.849628 72.9922771,56.3852002 C73.2213769,56.6706862 73.5274918,56.7349732 73.8917347,56.6324352 C74.0274623,56.5942265 74.1583957,56.5390357 74.3416759,56.4492649 C74.393836,56.4235731 74.393836,56.4235731 74.4439615,56.398664 C74.8370433,55.8471903 74.7284744,55.4480663 74.2638314,54.7103802 C74.0909312,54.4358767 74.0414558,54.3526889 73.9829912,54.2265285 C72.8024271,52.1792023 73.0086921,49.4686378 74.3280109,47.1389138 C76.204817,43.6203759 80.7792526,41.8256344 84.4554031,43.2169249 C86.451091,43.963867 87.9940909,45.8093998 88.4460006,47.9440787 C88.8964091,49.6442181 88.534649,51.5863397 87.5429221,53.3036432 C86.2836685,55.4208255 83.5323409,56.5154215 80.8777398,56.1219159 C80.3843612,55.8845817 80.2321755,55.3970784 80.3464234,54.6362857 C80.3775658,54.4289044 80.4246899,54.2182188 80.4996627,53.9312891 C80.5156025,53.870286 80.5350199,53.7973265 80.569256,53.6687344 C80.6467302,53.406258 80.7208568,53.1433935 80.8332411,52.7364409 C80.8608783,52.6363029 80.8608783,52.6363029 80.8885334,52.5360002 L81.0484158,51.9601673 C81.8600303,49.0737781 82.6238919,47.5677859 84.1752326,46.477549 L84.2389651,46.3523655 L84.2366747,46.2043055 C84.235213,46.1034297 84.2337486,45.9889184 84.2314826,45.8049884 C84.2292528,45.6240105 84.2277764,45.5088911 84.2262973,45.4073293 L84.2239822,45.2586169 L84.116037,45.1171059 C84.0386745,45.0941717 84.0386745,45.0941717 83.9592029,45.0699903 C83.8185008,45.027256 83.7417901,45.0051768 83.6544647,44.983648 C83.1907011,44.8693137 82.8448523,44.90458 82.537287,45.1718436 C81.0848278,46.0447553 80.3826843,47.3411505 79.4727437,50.0984077 C79.4352765,50.2282328 79.3990972,50.3554091 79.3637594,50.4816734 L79.259824,50.8594667 C79.0040652,51.8057921 78.7705344,52.798497 78.3709345,54.5702089 L78.3687249,54.5800056 C77.5592738,58.168877 77.1377573,59.7527209 76.3891744,61.6570914 C75.4355078,64.0203445 74.4548116,65.533191 72.9962807,66.5106358 C71.8099156,67.2306283 70.6725503,67.5222048 69.656353,67.2369564 C69.5546079,67.2258903 69.5011873,67.2153492 69.3002471,67.1705462 C69.2223233,67.1532679 69.1879657,67.1459236 69.1414939,67.1369141 C68.6387737,67.0394519 68.3241837,67.1231254 68.2067786,67.5449143 C67.9476733,68.0338985 68.3008083,68.6507812 68.8659271,68.8862473 C70.0708628,69.371036 71.4852168,69.2584158 72.9802528,68.6902311 C75.302829,67.6579137 77.0699598,65.480752 78.1668602,62.6562336 C78.3823285,62.1431692 78.5237267,61.703962 78.794369,60.7681461 L78.8043378,60.7336735 C79.0537277,59.8712456 79.1739857,59.4895369 79.3561645,59.0282508 C79.5948764,58.3691333 80.2845002,58.118361 81.3572865,58.1103252 C83.2666729,58.0957218 84.7356516,57.8305093 86.0081743,57.1549056 C89.5767497,55.3898411 91.3422713,50.7214759 90.1568586,46.7405178 C89.4427045,44.0576131 87.2682379,41.8376483 84.5951546,41.0708815 C79.8306601,39.7981113 74.379605,42.2674086 72.2464858,46.691207 Z M37.7116176,40.8021383 C35.7601354,41.3547812 34.3031373,42.8457921 32.8155446,45.3462139 C31.48706,47.7315423 30.5414565,50.0917987 30.0202284,52.4472939 C30.0571361,53.4502773 31.2418882,53.7764755 31.9386723,53.1191998 C33.2465828,48.907638 34.1893597,46.7120357 35.8648019,44.685453 C36.9618169,43.3518276 38.2810478,42.6797808 39.5455847,43.0788457 C40.3764629,43.6082526 40.6532459,44.812013 40.2899315,45.9433869 C38.9890006,50.6865364 34.2413091,54.2375296 29.5216221,53.7896761 C27.5526975,53.6045384 25.7607891,52.1866156 25.176775,50.3252502 C25.1253628,50.1923277 25.0922452,50.0881028 25.0198488,49.8424235 C24.8493964,49.2640318 24.7404394,49.0089796 24.4933293,48.742861 C23.6643484,48.4623556 22.8564254,49.0148139 23.0731506,49.8016929 C23.4892649,52.1407448 24.945289,54.1901833 26.9672493,55.0567377 C28.2777979,55.6397061 28.9494454,56.2950197 28.7066981,57.1680193 C28.6680022,57.3208233 28.6680022,57.3208233 28.6302849,57.4703297 C28.566395,57.7236956 28.5368853,57.8405335 28.5022212,57.9770063 C28.0445767,59.778755 27.7220136,60.835751 27.2543215,61.9129241 C26.9391424,62.4362104 26.4589235,62.5031999 25.5724785,62.2708606 C25.4834858,62.2475355 25.3985008,62.2238584 25.2606662,62.1844679 C24.7639469,62.0425154 24.5965919,62.0005149 24.3648192,61.9734984 C22.2787866,61.3446107 19.8180619,62.636753 19.6581604,64.7450831 C19.4652763,66.3284196 20.9277075,67.7032258 22.6168589,67.7888825 C23.9029105,67.9469905 25.0659875,67.5484925 26.6659348,66.5923327 L27.1191105,66.3160291 L27.1398396,66.3032002 L27.1719408,66.2825505 L27.1916593,66.2710081 C27.2679361,66.2235533 27.5155727,66.0696697 27.6754893,65.9706942 L27.7170099,65.9427831 L27.7806497,65.9688106 C28.2118887,66.1522599 28.5976946,66.3487686 29.3610143,66.7579649 C29.3778415,66.7669856 29.3778415,66.7669856 29.3946719,66.7760077 C30.5713463,67.4067567 31.1323328,67.6710882 31.8677405,67.8906789 C34.8990546,68.9164146 38.2157285,68.5483621 40.4988851,66.7408631 C40.5445346,66.7008347 40.5884559,66.6643671 40.6406636,66.6228184 C40.6902237,66.5833766 40.7486135,66.5382834 40.8628175,66.450255 C41.3849851,66.0446797 41.6118059,65.7599485 41.6224955,65.317401 C41.7334096,64.5595861 40.6659667,63.9778983 40.1372861,64.5795003 C40.0448371,64.6471887 40.0448371,64.6471887 39.9310731,64.7348112 C38.6289321,65.7367777 37.9117044,66.169498 36.9729244,66.3934479 C34.6802905,67.0042255 32.0880309,66.3345327 29.7262283,64.7399823 C29.2577709,64.430361 29.0192053,63.8347316 29.1386796,63.2808052 C29.273271,62.5276379 29.4483786,61.9208601 29.8671287,60.6450927 C29.8748717,60.6215037 29.8748717,60.6215037 29.8826169,60.5979104 C30.1228173,59.8662054 30.2272416,59.5362453 30.3440272,59.121701 L30.3965436,58.963116 C30.4398296,58.8278272 30.4851721,58.6744006 30.5569511,58.4255754 C30.5670956,58.3904067 30.5670956,58.3904067 30.5772375,58.3552773 C30.8071483,57.5593238 30.9511178,57.1740434 31.2070207,56.773572 C31.6217159,56.2298965 32.1743951,55.9124331 33.2356946,55.510114 C33.3099644,55.4819597 33.3838224,55.4542651 33.5320883,55.398774 L33.6700333,55.3468373 L33.8913609,55.261728 L33.9892286,55.2228599 C37.5816169,53.9938673 40.5562918,50.9800957 41.8862842,47.3017872 C42.558119,45.2148792 42.5339937,43.344779 41.542653,41.9902198 C40.6886244,40.8230473 39.060155,40.3120448 37.7116176,40.8021383 Z M61.0381871,40.6389758 L60.9706299,40.6442653 C60.4956189,40.7943233 60.1467317,40.9924555 59.4111996,41.4808015 C59.3888748,41.4956243 59.3888748,41.4956243 59.3665727,41.5104289 C58.3359019,42.1945072 57.8259759,42.4246979 57.107032,42.4023184 C56.1561585,42.4888352 55.2661028,42.3826151 53.8269333,42.0770075 L53.1693272,41.9351216 C50.7974316,41.422898 49.5817921,41.3537073 48.1679771,41.8844272 C45.1515498,42.7927562 43.5160042,46.6553381 45.0854034,49.3636203 C46.3974615,51.7026697 50.0945582,51.9325011 51.8266348,49.8641605 C52.1335599,48.8822894 50.9797654,48.302403 50.294643,48.9322736 C49.1618006,49.7583487 47.5948611,49.6962657 46.8603733,48.6451436 C45.7883083,46.9467075 46.7781487,44.3539893 48.7108591,43.5814971 C49.3565814,43.2949288 50.0588302,43.2414473 50.9316722,43.36396 C51.3003934,43.4157139 51.6238196,43.4821487 52.2457141,43.6249894 C52.6965851,43.7285483 52.8192027,43.7560566 53.030174,43.7989585 C53.5906856,43.94678 54.0740348,44.0383169 55.0732362,44.2018566 C55.0989181,44.2060594 55.0989181,44.2060594 55.1245942,44.2102604 L55.3647722,44.2497723 C55.5930863,44.2875757 55.7871827,44.3205321 55.9594242,44.3511425 L56.2784309,44.4099768 C56.4765597,44.4481026 56.650488,44.4850224 56.829521,44.5266654 L56.8989408,44.5425505 L56.9076566,44.5585561 C56.9141689,44.570974 56.9222761,44.5864635 56.9344369,44.6096978 L57.092736,44.9152646 L57.1309408,44.9905505 L57.104708,45.0894321 L57.0224397,45.3931289 C56.8571466,45.9993133 56.6800095,46.6246285 56.3595253,47.7440178 C56.3487477,47.7816617 56.3487477,47.7816617 56.3379701,47.8193067 C55.9286705,49.2489685 55.697506,50.072518 55.4865954,50.8758006 L55.3901153,51.2472407 L55.3418759,51.4358813 C54.9837264,52.8917537 53.9034067,54.1237676 52.5117934,54.6590035 C49.1526539,56.0803762 46.8654993,57.4226891 45.0191497,59.2716914 C43.3866572,60.86951 42.346921,62.6079978 42.0910582,64.4602217 C41.8550587,65.8995242 42.5066636,67.3867823 43.750097,67.926498 C45.4792175,68.7099836 47.5676743,68.138483 49.4592505,66.6976339 C52.0688445,64.6987394 53.9548513,61.7688597 55.5636479,57.7342148 C55.6999348,57.3983722 55.7678349,57.1790275 55.7808394,56.9476853 C55.8005862,56.5963991 55.6569661,56.3321577 55.3206598,56.21548 C54.5474688,56.0581774 53.8340944,56.6304667 53.5879609,57.4276452 C52.1057813,61.0427263 50.4250284,63.5844547 48.0825661,65.2576422 C46.736022,66.1354783 45.8063908,66.4469906 44.89995,66.0797055 C44.1493825,65.6710484 44.0868814,64.6499535 44.5088542,63.4362792 C45.4006451,61.2662458 47.2783023,59.5165614 49.986512,58.0135759 C51.8930838,56.9880217 53.7488959,56.1765247 56.9185658,54.9176593 L58.6889257,54.2159436 C59.3714431,53.9444043 59.9250781,53.7211105 60.4557041,53.5023515 L60.5494881,53.4698346 C60.6141215,53.4461695 60.6922058,53.4150659 60.8391195,53.3557402 C61.3946152,53.1314236 61.6597223,53.0758921 61.9593053,53.1764458 C61.9930813,53.1877826 62.0265058,53.2013511 62.0596605,53.2172518 C62.2213262,53.3909348 62.2556378,53.6647921 62.129786,53.968478 C60.6423025,58.9675123 60.0395239,62.0294089 60.1527311,65.3458647 C60.1643267,65.4637972 60.1721363,65.557382 60.1869792,65.749574 C60.2003621,65.922862 60.2055468,65.9874554 60.2137653,66.0783433 C60.2807354,66.8189606 60.4038573,67.2930622 60.7016009,67.713745 C60.9450567,68.0091085 61.2429109,68.0595185 61.6908222,67.9806706 C61.7391483,67.9721635 61.7764101,67.964894 61.8593209,67.9481381 C62.0215182,67.91527 62.0786433,67.9047615 62.1539779,67.8959292 L62.2865114,67.7469496 C62.2865114,67.2802508 62.2607829,66.9096188 62.1838738,66.0796098 C62.1796245,66.0337516 62.1796245,66.0337516 62.1753866,65.9879221 C62.0803627,64.9592529 62.0566737,64.43495 62.1062186,63.830777 C62.3323437,60.9713964 62.8677096,58.6598362 64.2613263,53.7884734 C64.2973363,53.6626118 64.2973363,53.6626118 64.3333387,53.5367798 C64.6122903,52.4185478 65.3940344,51.4348146 66.4594777,50.7985927 C69.5400736,48.8820014 71.0143741,47.6274366 71.9740528,45.6594554 C72.7112701,44.1465877 72.3230008,42.2151461 70.9146162,41.547707 C69.8104894,40.9083508 68.3290812,41.235555 67.2449134,42.1973168 C66.2722611,43.0771997 65.6126153,44.1980021 64.8835309,45.961916 C64.8647867,46.0112973 64.8647867,46.0112973 64.8475803,46.0563441 C64.8061457,46.1645754 64.7797032,46.2321639 64.6921987,46.454538 C64.2323261,47.623206 64.0703732,48.1845383 64.0660958,48.9159679 L64.2238294,49.0666454 C65.168773,49.0178455 65.7972018,48.7757952 66.0679074,48.1460486 C66.2060288,47.8414391 66.3191923,47.5640597 66.5288679,47.0286564 L66.5580929,46.9539965 L66.5981177,46.8518608 C66.6058201,46.8322243 66.6150646,46.808662 66.6273905,46.7772455 C67.2814776,45.1129392 67.7360868,44.311014 68.5650015,43.6461186 C68.8078391,43.4079208 69.0906847,43.3332298 69.6104109,43.314554 C69.6857351,43.3120651 69.6857351,43.3120651 69.7617438,43.3099879 L69.8418726,43.30772 C69.8652587,43.3070247 69.8857322,43.306374 69.9045256,43.3057192 L69.9399408,43.3045505 L70.0990489,43.4643036 C70.1961959,43.5623407 70.3100212,43.6777544 70.4768165,43.8471158 C70.5928093,44.9817366 69.9445044,45.883999 68.3478032,47.2227373 C65.8318063,49.2164732 62.8672343,50.7364502 58.7865637,52.3037166 C58.5676196,52.4037938 58.3410921,52.4193802 58.0060329,52.379949 C57.9450036,52.3727669 57.893559,52.3657624 57.7855366,52.3503547 L57.6767049,52.335058 C57.6443441,52.3306069 57.6155202,52.3267636 57.5879779,52.3232663 L57.5070099,52.3127831 L57.4938299,52.2163269 C57.4242087,51.6734347 57.4310183,51.3570529 57.5415844,51.0190962 C57.6126581,50.751908 57.6716291,50.5252543 57.7847032,50.0876075 C57.8414703,49.8678551 57.8414703,49.8678551 57.8983864,49.6481495 C58.5425578,47.1654955 58.9816919,45.824935 59.6987661,44.4369847 C59.9436095,43.9825158 60.2322822,43.6881426 60.9571282,43.0775697 L61.1309901,42.9301799 C61.5657924,42.5586756 61.7795885,42.3493482 62.0034879,42.0596538 C62.2433054,41.3798745 61.7174672,40.7414371 61.0381871,40.6389758 Z M25.7894989,64.3374938 L25.9429408,64.4195505 L25.951,64.391 L25.9363386,64.4454856 C25.6900795,65.1986191 25.0798055,65.5814767 23.7498282,66.0265722 L23.5075829,66.1058525 C22.7313113,66.3440144 21.8355053,65.9789606 21.6139871,65.2690954 C21.2888065,64.5399519 21.9602584,63.6130253 22.7903031,63.5268192 C23.6971194,63.4109103 24.5204915,63.6653773 25.7894989,64.3374938 Z"
        id="Combined-Shape"></path>
    </g>
  </g>
</svg>