<?xml version="1.0" encoding="UTF-8"?>
<svg width="38px" height="43px" viewBox="0 0 38 43" version="1.1" xmlns="http://www.w3.org/2000/svg" xmlns:xlink="http://www.w3.org/1999/xlink">
    <title>Group 7</title>
    <g id="February-Redesign" stroke="none" stroke-width="1" fill="none" fill-rule="evenodd">
        <g id="Home-Page" transform="translate(-196, -1006)">
            <g id="Group-7" transform="translate(196, 1006)">
                <path d="M15.5,43 C27.3741221,43 38,31.3741221 38,19.5 C38,7.62587788 32.3741221,0 20.5,0 C8.62587788,0 0,7.62587788 0,19.5 C0,31.3741221 3.62587788,43 15.5,43 Z" id="Oval" fill="#EAFF82"></path>
                <g id="Group" transform="translate(9, 11)" stroke="#C0D16B" stroke-linecap="round" stroke-linejoin="round" stroke-width="2">
                    <path d="M0,5 L4.41,0.590000629 C4.78579638,0.211961231 5.29695542,-0.000421747316 5.83,0 L14.17,0 C14.7030446,-0.000421747316 15.2142036,0.211961231 15.59,0.590000629 L20,5" id="Path"></path>
                    <path d="M2,10.0000006 L2,18.0000006 C2,19.1045701 2.8954305,20.0000006 4,20.0000006 L16,20.0000006 C17.1045695,20.0000006 18,19.1045701 18,18.0000006 L18,10.0000006" id="Path"></path>
                    <path d="M13,20.0000006 L13,16.0000006 C13,14.8954311 12.1045695,14.0000006 11,14.0000006 L9,14.0000006 C7.8954305,14.0000006 7,14.8954311 7,16.0000006 L7,20.0000006" id="Path"></path>
                    <line x1="0" y1="5.00000063" x2="20" y2="5.00000063" id="Path"></line>
                    <path d="M20,5.00000063 L20,8.00000063 C20,9.10457013 19.1045695,10.0000006 18,10.0000006 C17.415735,9.96784272 16.8577301,9.74674644 16.41,9.37000063 C16.1652728,9.19315039 15.8347272,9.19315039 15.59,9.37000063 C15.1422699,9.74674644 14.584265,9.96784272 14,10.0000006 C13.415735,9.96784272 12.8577301,9.74674644 12.41,9.37000063 C12.1652728,9.19315039 11.8347272,9.19315039 11.59,9.37000063 C11.1422699,9.74674644 10.584265,9.96784272 10,10.0000006 C9.41573504,9.96784272 8.85773013,9.74674644 8.41,9.37000063 C8.16527277,9.19315039 7.83472723,9.19315039 7.59,9.37000063 C7.14226987,9.74674644 6.58426496,9.96784272 6,10.0000006 C5.41573504,9.96784272 4.85773013,9.74674644 4.41,9.37000063 C4.16527277,9.19315039 3.83472723,9.19315039 3.59,9.37000063 C3.14226987,9.74674644 2.58426496,9.96784272 2,10.0000006 C0.8954305,10.0000006 0,9.10457013 0,8.00000063 L0,5.00000063" id="Path"></path>
                </g>
            </g>
        </g>
    </g>
</svg>