<?xml version="1.0" encoding="UTF-8"?>
<svg width="9px" height="9px" viewBox="0 0 9 9" version="1.1" xmlns="http://www.w3.org/2000/svg" xmlns:xlink="http://www.w3.org/1999/xlink">
    <title>Group</title>
    <g id="Page-1" stroke="none" stroke-width="1" fill="none" fill-rule="evenodd">
        <g id="Artboard" transform="translate(-24, -8)" fill="#000000" fill-rule="nonzero">
            <g id="Group" transform="translate(24, 8)">
                <path d="M4.5,0 L4.5,0 C2.01471863,0 0,2.01471863 0,4.5 C0,6.98528137 2.01471863,9 4.5,9 C6.98528137,9 9,6.98528137 9,4.5 C8.99713869,2.01590479 6.98409521,0.00286131428 4.5,0 L4.5,0 Z M8.3076937,4.5 C8.30799347,4.85115665 8.25950097,5.20065213 8.16360577,5.53846154 L6.49730769,5.53846154 C6.60346272,4.85022317 6.60346272,4.14977683 6.49730769,3.46153846 L8.16360577,3.46153846 C8.25950097,3.79934787 8.30799347,4.14884335 8.3076937,4.5 L8.3076937,4.5 Z M3.375,6.23076923 L5.625,6.23076923 C5.40333672,6.95708261 5.01853001,7.62309423 4.5,8.17788462 C3.98166751,7.62294788 3.59688872,6.95698459 3.375,6.23076923 L3.375,6.23076923 Z M3.20625,5.53846154 C3.08740742,4.85125402 3.08740742,4.14874598 3.20625,3.46153846 L5.79721154,3.46153846 C5.91605412,4.14874598 5.91605412,4.85125402 5.79721154,5.53846154 L3.20625,5.53846154 Z M0.692306298,4.5 C0.692006535,4.14884335 0.740499032,3.79934787 0.836394231,3.46153846 L2.50269231,3.46153846 C2.39653728,4.14977683 2.39653728,4.85022317 2.50269231,5.53846154 L0.836394231,5.53846154 C0.740499032,5.20065213 0.692006535,4.85115665 0.692306298,4.5 L0.692306298,4.5 Z M5.625,2.76923077 L3.375,2.76923077 C3.59666328,2.04291739 3.98146999,1.37690577 4.5,0.822115385 C5.01833249,1.37705212 5.40311128,2.04301541 5.625,2.76923077 L5.625,2.76923077 Z M7.88927885,2.76923077 L6.34802885,2.76923077 C6.15377278,2.05654656 5.82637571,1.38707094 5.383125,0.796153846 C6.46689257,1.05650164 7.3829104,1.7771782 7.89100962,2.76923077 L7.88927885,2.76923077 Z M3.616875,0.796153846 C3.17362429,1.38707094 2.84622722,2.05654656 2.65197115,2.76923077 L1.10899038,2.76923077 C1.6170896,1.7771782 2.53310743,1.05650164 3.616875,0.796153846 Z M1.10899038,6.23076923 L2.65197115,6.23076923 C2.84622722,6.94345344 3.17362429,7.61292906 3.616875,8.20384615 C2.53310743,7.94349836 1.6170896,7.2228218 1.10899038,6.23076923 Z M5.383125,8.20384615 C5.82637571,7.61292906 6.15377278,6.94345344 6.34802885,6.23076923 L7.89100962,6.23076923 C7.3829104,7.2228218 6.46689257,7.94349836 5.383125,8.20384615 Z" id="Shape"></path>
            </g>
        </g>
    </g>
</svg>