<?xml version="1.0" encoding="UTF-8"?>
<svg width="26px" height="26px" viewBox="0 0 26 26" version="1.1" xmlns="http://www.w3.org/2000/svg" xmlns:xlink="http://www.w3.org/1999/xlink">
    <title>Shape</title>
    <g id="Page-1" stroke="none" stroke-width="1" fill="none" fill-rule="evenodd">
        <path d="M12.999974,2.3423898 C16.471141,2.3423898 16.882266,2.3556003 18.253064,2.4181438 C19.520551,2.4759914 20.208891,2.6877725 20.667028,2.8657533 C21.273783,3.1015817 21.706892,3.3833372 22.161777,3.8382228 C22.616663,4.2931083 22.898418,4.7262172 23.134195,5.3329721 C23.312227,5.7911087 23.524009,6.4794489 23.581856,7.7468844 C23.6444,9.1177336 23.65761,9.5288593 23.65761,13.0000258 C23.65761,16.4711923 23.6444,16.8823181 23.581856,18.2531156 C23.524009,19.5206028 23.312227,20.2089429 23.134195,20.6670795 C22.898418,21.2738344 22.616663,21.7069433 22.161777,22.1618288 C21.706892,22.6167144 21.273783,22.89847 20.667028,23.1342467 C20.208891,23.312279 19.520551,23.5240602 18.253064,23.5819078 C16.882473,23.6444513 16.471347,23.6576618 12.999974,23.6576618 C9.528601,23.6576618 9.117476,23.6444513 7.746884,23.5819078 C6.479397,23.5240602 5.791057,23.312279 5.332972,23.1342467 C4.726166,22.89847 4.293057,22.6167144 3.838171,22.1618288 C3.383286,21.7069433 3.10153,21.2738344 2.865753,20.6670795 C2.687721,20.2089429 2.47594,19.5206028 2.418092,18.2531672 C2.355549,16.8823181 2.342338,16.4711923 2.342338,13.0000258 C2.342338,9.5288593 2.355549,9.1177336 2.418092,7.746936 C2.47594,6.4794489 2.687721,5.7911087 2.865753,5.3329721 C3.10153,4.7262172 3.383286,4.2931083 3.838171,3.8382228 C4.293057,3.3833372 4.726166,3.1015817 5.332972,2.8657533 C5.791057,2.6877725 6.479397,2.4759914 7.746833,2.4181438 C9.117682,2.3556003 9.528808,2.3423898 12.999974,2.3423898 M12.999974,0 C9.46936,0 9.026705,0.014965 7.640117,0.078231 C6.256367,0.1413938 5.311402,0.3611219 4.484454,0.682509 C3.629589,1.0147328 2.904611,1.4592461 2.181903,2.1819542 C1.459194,2.9046624 1.014681,3.6296411 0.682457,4.484506 C0.36107,5.3114534 0.141342,6.2564182 0.078179,7.6401682 C0.014913,9.0267049 0,9.469412 0,13.0000258 C0,16.5306396 0.014913,16.9733467 0.078179,18.3598833 C0.141342,19.7436334 0.36107,20.6885982 0.682457,21.5155456 C1.014681,22.3703589 1.459194,23.0953892 2.181903,23.8180974 C2.904611,24.5408056 3.629589,24.9853188 4.484454,25.3175427 C5.311402,25.6389298 6.256367,25.8586578 7.640117,25.9218205 C9.026705,25.9850866 9.46936,26 12.999974,26 C16.530588,26 16.973295,25.9850866 18.359832,25.9218205 C19.743582,25.8586578 20.688547,25.6389298 21.515494,25.3175427 C22.370359,24.9853188 23.095338,24.5408056 23.818046,23.8180974 C24.540754,23.0953892 24.985267,22.3704105 25.317491,21.5155456 C25.638878,20.6885982 25.858606,19.7436334 25.921769,18.3598833 C25.985035,16.9733467 26,16.5306396 26,13.0000258 C26,9.469412 25.985035,9.0267049 25.921769,7.6401682 C25.858606,6.2564182 25.638878,5.3114534 25.317491,4.484506 C24.985267,3.6296411 24.540754,2.9046624 23.818046,2.1819542 C23.095338,1.4592461 22.370359,1.0147328 21.515494,0.682509 C20.688547,0.3611219 19.743582,0.1413938 18.359832,0.078231 C16.973295,0.014965 16.530588,0 12.999974,0 Z M12.999974,6.3243285 C9.313105,6.3243285 6.324277,9.3131563 6.324277,13.0000258 C6.324277,16.6868953 9.313105,19.6757231 12.999974,19.6757231 C16.686844,19.6757231 19.675672,16.6868953 19.675672,13.0000258 C19.675672,9.3131563 16.686844,6.3243285 12.999974,6.3243285 Z M12.999974,17.333385 C10.606755,17.333385 8.666615,15.3932451 8.666615,13.0000258 C8.666615,10.6068065 10.606755,8.6666667 12.999974,8.6666667 C15.393193,8.6666667 17.333333,10.6068065 17.333333,13.0000258 C17.333333,15.3932451 15.393193,17.333385 12.999974,17.333385 Z M21.499394,6.0605826 C21.499394,6.922156 20.800991,7.6206105 19.939417,7.6206105 C19.077844,7.6206105 18.37939,6.922156 18.37939,6.0605826 C18.37939,5.1990092 19.077844,4.5006063 19.939417,4.5006063 C20.800991,4.5006063 21.499394,5.1990092 21.499394,6.0605826 Z" id="Shape" fill="#76805D" fill-rule="nonzero"></path>
    </g>
</svg>