<?xml version="1.0" encoding="UTF-8"?>
<svg width="86px" height="86px" viewBox="0 0 86 86" version="1.1" xmlns="http://www.w3.org/2000/svg" xmlns:xlink="http://www.w3.org/1999/xlink">
    <title>Group 2 Copy</title>
    <g id="Page-1" stroke="none" stroke-width="1" fill="none" fill-rule="evenodd">
        <g id="Group-2-Copy" stroke="#76805D">
            <circle id="Oval" stroke-width="1.5" fill="#C7D2AB" cx="43" cy="43" r="42.25"></circle>
            <path d="M72.5564417,29.2157997 C75.1783929,29.9679252 77.3119121,32.1493886 78.0130967,34.7833259 C79.1337936,38.5469496 77.5666159,43.2275071 73.9378354,45.02242 C72.5324695,45.7685524 70.9233406,45.9483433 69.3561629,45.9603294 C68.5560932,45.9663224 67.5312849,46.1041621 67.2166507,46.9731517 C66.7491943,48.1567754 66.5214591,49.4243015 66.027034,50.6019322 C65.068149,53.0710611 63.4140723,55.4443015 60.9269643,56.5500158 C59.6654312,57.0294583 58.2121211,57.266183 56.9236194,56.7477858 C56.4921211,56.5679949 56.1055706,56.0555907 56.3512849,55.5851377 C56.5130967,55.0038137 57.2112849,55.348413 57.6158145,55.3813747 C58.8114243,55.7169844 60.0579748,55.255521 61.0797866,54.6352423 C62.7967901,53.4845802 63.7766507,51.5757997 64.5287762,49.711967 C65.9940723,45.9843015 66.509473,41.97796 67.6151873,38.1454165 C68.2114939,36.3385175 68.9156751,34.3218625 70.6356751,33.285068 C71.0701699,32.9075071 71.5915636,33.1202597 72.0740027,33.2610959 C72.0799957,33.6236743 72.0829922,33.9892492 72.0889852,34.3548241 C70.2195875,35.6685822 69.4989714,37.8036914 68.9038834,39.9200374 L68.7439302,40.4961262 C68.6383445,40.8790338 68.5338334,41.2587963 68.4242466,41.6303642 C68.1935148,42.5023503 67.8099608,43.7818625 68.8557448,44.2702945 C71.4027831,44.6478555 74.3094033,43.6709914 75.672818,41.3786569 C76.6107274,39.7545454 77.0811804,37.7558694 76.5927483,35.9130123 C76.1372779,33.761514 74.5820863,31.8527335 72.5084974,31.076636 C68.7238981,29.6443015 64.0882884,31.5201203 62.197487,35.0649984 C60.9689155,37.2344757 60.5553964,40.0512004 61.8468946,42.2895977 C62.1315636,42.9038834 62.8507274,43.5571238 62.3772779,44.2643015 C61.9727483,44.465068 61.4603441,44.7287614 61.1067553,44.2882736 C58.8893337,41.6693189 58.8863371,37.7289008 60.3815985,34.7563572 C62.4911455,30.3814443 67.8788807,27.9662527 72.5564417,29.2157997 Z M49.0158145,28.787298 C49.5521908,28.8682039 50.0825741,29.3866011 49.884804,29.9679252 C49.2015985,30.8518973 48.1078702,31.361305 47.5655009,32.3681342 C46.4957448,34.4387266 45.9923302,36.7340576 45.3990201,38.9724548 C45.2402047,39.4578903 45.3031316,39.961305 45.3750479,40.4527335 C45.857487,40.4856952 46.3698912,40.6594931 46.8403441,40.443744 C50.2264068,39.1432562 53.5855009,37.6030471 56.4441769,35.3376813 C57.519926,34.4357301 58.7844556,33.2940576 58.5836891,31.7418625 C58.3889155,31.5440924 58.194142,31.3463224 57.9993685,31.1515489 C57.4689852,31.1785175 56.8816682,31.1245802 56.4711455,31.5291099 C55.0627831,32.6587963 54.6432709,34.5136395 53.9301002,36.0868102 C53.6454312,36.7490402 52.8543511,36.8838834 52.2160932,36.916845 C52.2220863,35.8920367 52.6685671,34.9571238 53.022156,34.0192144 C53.5795079,32.6707823 54.2447344,31.3043712 55.3444556,30.309528 C56.2733755,29.4854862 57.70571,29.0210262 58.850379,29.6832562 C60.28571,30.3634653 60.4714939,32.2962179 59.8392291,33.5937092 C58.7155358,35.8980297 56.4921211,37.3573328 54.3825741,38.6698067 C53.3337936,39.2960785 52.4887762,40.2939182 52.1891246,41.495521 C51.22125,44.8785872 50.2353964,48.2946151 49.9567204,51.8185175 C49.8488459,53.1339879 50.1365114,54.4344757 50.1365114,55.7469496 C49.7020166,55.7978903 49.1656403,56.0406081 48.8240375,55.6270889 C48.3595776,54.970852 48.3805532,54.110852 48.3026438,53.3407475 C48.1707971,49.4782388 49.1776263,45.6936395 50.2683581,42.0259043 C50.4061978,41.693291 50.3882187,41.3456952 50.1245253,41.0820018 C49.5372082,40.8003294 48.9468946,41.1808869 48.3985323,41.3636743 C47.812214,41.6053932 47.2233987,41.8418683 46.6336539,42.0764982 L44.8631987,42.7782517 C42.5030541,43.7156062 40.15312,44.6778207 37.9137239,45.88242 C35.6243859,47.1529426 33.3889852,48.8999112 32.3671734,51.3870193 C32.0525392,52.291967 31.8337936,53.6703642 32.8436194,54.2187266 C33.9972779,54.686183 35.2138633,54.0029774 36.1697518,53.3797022 C38.8546298,51.4619322 40.50571,48.46242 41.7312849,45.4718973 C41.9320514,44.8216534 42.5433406,44.2103642 43.2714939,44.3571935 C43.858811,44.5609565 43.5921211,45.2651377 43.4243162,45.6786569 C42.0908668,49.0227684 40.2749783,52.3518973 37.3683581,54.5783085 C35.834142,55.7469496 33.6946298,56.6429078 31.8098215,55.7889008 C30.5602744,55.2465315 30.0298912,53.7602597 30.2396472,52.4807475 C30.5153267,50.485068 31.713933,48.759075 33.1252918,47.3776813 C35.2108668,45.2891099 37.8747692,43.9376813 40.5656403,42.7990053 C42.0069643,42.2446499 43.1186716,40.9711308 43.4872431,39.4728729 C44.0415985,37.294406 44.7098215,35.1459043 45.2911455,32.9734304 L45.2259245,32.8462658 L45.0673901,32.5402466 C45.0422474,32.4921151 45.0192117,32.448291 45.0004835,32.413082 C43.6999957,32.0984478 42.3575567,31.9935698 41.0600654,31.651967 C39.6307274,31.361305 38.0725392,30.8129426 36.6551873,31.4422109 C34.6984626,32.2243015 33.5777657,34.894197 34.7374173,36.7310611 C35.5854312,37.9446499 37.2964417,37.8457649 38.3961629,37.0426987 C38.9535148,36.5302945 39.9513546,36.9677858 39.7116333,37.7678555 C38.0755358,39.7215837 34.497696,39.5747545 33.2151873,37.288413 C31.6749783,34.6305036 33.3260584,30.896845 36.2206925,30.024859 C37.8571231,29.4105733 39.4935536,29.7266872 41.1376912,30.0817476 L41.7957755,30.2237358 C42.8933287,30.4568012 43.994764,30.6543492 45.102365,30.5522457 C46.6425741,30.60019 47.6404138,29.2217928 49.0158145,28.787298 Z M29.4215985,30.0787963 C30.5093337,31.565068 30.278602,33.5937092 29.7452222,35.2507823 C28.4537239,38.822629 25.5501002,41.8461133 21.9333058,43.0836743 C20.9264765,43.4882039 19.7698215,43.7878555 19.0806229,44.6928032 C18.6191594,45.4149635 18.4723302,46.2809565 18.1996472,47.0810262 C17.8071037,48.474406 17.2467553,49.8228381 16.9920514,51.2491795 C16.8602047,51.8604687 17.1209016,52.5197022 17.6422953,52.8643015 C19.7638284,54.296636 22.4546995,55.2195628 25.0077309,54.5393538 C26.2512849,54.2426987 27.2611107,53.4396325 28.2499608,52.6785175 C28.6844556,52.1840924 29.5624347,52.6935001 29.4725392,53.3137788 C29.4575567,53.9340576 28.8163023,54.2606778 28.4057797,54.6232562 C26.0325392,56.5020715 22.7004138,56.690852 19.9106577,55.7469496 C18.4153964,55.3004687 17.1418772,54.3655558 15.7065462,53.7752423 C15.4869444,53.9100855 15.2652634,54.0492094 15.0410227,54.1879577 L14.588986,54.4635737 C13.3736942,55.1898559 12.0764815,55.8171537 10.6244556,55.639075 C9.14717338,55.5641621 7.61295735,54.3565663 7.80773087,52.7564269 C7.96954272,50.6229078 10.4716333,49.5591447 12.3474521,50.1224896 C13.3243162,50.2363572 14.7146995,51.1023503 15.3919121,49.9726639 C16.054142,48.4474374 16.4436891,46.8173328 16.8512152,45.2082039 C17.1778354,44.0335698 15.9222953,43.3174025 15.0263371,42.9188659 C12.9497518,42.0289008 11.6043162,39.9313398 11.2177657,37.7618625 C11.0229922,37.0546848 11.7811107,36.6561482 12.3834103,36.8449287 C12.7729574,37.2644409 12.8328877,37.8547545 13.0336542,38.3701551 C13.6419469,40.3089008 15.4997866,41.7502248 17.5074521,41.9390053 C22.4337239,42.4064618 27.1532361,38.6548241 28.4327483,33.9892492 C28.7743511,32.9254862 28.6035497,31.5740576 27.5907274,30.9357997 C26.0714939,30.4563572 24.6661281,31.4751726 23.7491943,32.5898764 C21.7475218,35.0110611 20.7406925,38.049528 19.8357448,41.0100855 C19.2544208,41.5584478 18.2026438,41.3397022 18.1666856,40.4797022 C18.7150479,38.0015837 19.7128877,35.6343363 20.9444556,33.4229078 C22.0711455,31.5291099 23.5424347,29.5723851 25.7628528,28.9431168 C27.0573476,28.4726639 28.6125392,28.973082 29.4215985,30.0787963 Z M10.7712849,51.3780297 C9.90529185,51.4679252 9.08724307,52.4567754 9.47079708,53.3137788 C9.73449046,54.1587963 10.7622953,54.4914095 11.5533755,54.2486917 C12.5721908,53.9220715 13.8217378,53.5145454 14.1213894,52.3459043 C13.1025741,51.7885524 11.9668946,51.2252074 10.7712849,51.3780297 Z" id="Combined-Shape" stroke-width="0.3" fill="#76805D" fill-rule="nonzero"></path>
        </g>
    </g>
</svg>