<?xml version="1.0" encoding="UTF-8"?>
<svg width="122px" height="100px" viewBox="0 0 122 100" version="1.1" xmlns="http://www.w3.org/2000/svg" xmlns:xlink="http://www.w3.org/1999/xlink">
    <title>Combined Shape Copy</title>
    <g id="Page-1" stroke="none" stroke-width="1" fill="none" fill-rule="evenodd">
        <path d="M21.8132846,62.7615849 C25.326002,63.7681813 28.1843504,66.687712 29.1237514,70.2128048 C30.6251872,75.2497974 28.5255858,81.5139554 23.6639849,83.9161517 C21.7811683,84.9147274 19.6253635,85.1553481 17.5257621,85.1713895 C16.4538815,85.1794102 15.0809108,85.363886 14.6593847,86.5268859 C14.0331173,88.1109719 13.7280127,89.8073476 13.0656146,91.383413 C11.7809637,94.6879368 9.56494078,97.8641296 6.2328774,99.3439467 C4.5427585,99.9856018 2.59570941,100.302419 0.869459709,99.6086294 C0.291366785,99.3680087 -0.226508126,98.6822398 0.102683678,98.0526158 C0.319468525,97.2746089 1.25485499,97.7357985 1.79681711,97.7799123 C3.39861625,98.2290709 5.06866248,97.6114779 6.43761864,96.7813366 C8.73794673,95.2413643 10.0506994,92.6867749 11.0583475,90.1923407 C13.0214547,85.2034722 13.7119546,79.8416417 15.1933177,74.7124112 C15.99221,72.2941735 16.9356256,69.5952117 19.2399682,68.2076326 C19.8220756,67.7023292 20.5206046,67.9870636 21.1669446,68.1755498 C21.1749737,68.6608015 21.1789882,69.1500635 21.1870173,69.6393255 C17.9994771,71.8770977 17.3049627,75.8954628 16.277242,79.3764418 C15.9681228,80.543452 15.4542624,82.2558691 16.8553349,82.9095552 C20.2676889,83.4148586 24.1617871,82.1074863 25.9884002,79.0395729 C27.2449494,76.8659662 27.8752312,74.1910665 27.2208622,71.7247046 C26.610653,68.8452773 24.5271097,66.2906879 21.7490521,65.2520087 C16.6786954,63.3350641 10.468211,65.8455397 7.93503989,70.5897772 C6.28908087,73.4932665 5.73507515,77.2629903 7.46533939,80.2587176 C7.53798335,80.415312 7.63174684,80.5737979 7.7315653,80.7343138 L7.88395114,80.9766277 C8.26685343,81.5863053 8.62898081,82.225505 8.17591195,82.9015345 C7.63394983,83.1702276 6.94746448,83.5231379 6.47374945,82.9336173 C3.50299414,79.4285763 3.49897961,74.1549734 5.50223217,70.1767117 C8.32846425,64.3216088 15.5465967,61.0892712 21.8132846,62.7615849 Z M37.0725291,67.874774 C37.3776337,68.4001291 37.2331105,69.0457946 37.0926018,69.5992221 C35.6032096,74.5519975 34.1619918,79.5168038 32.6766141,84.4695792 C32.0704195,86.4667307 31.4441521,88.495965 31.3959777,90.5973855 C31.3879487,91.3192475 31.5605736,92.1975129 32.3835531,92.3980301 C33.7926546,92.4020405 34.9006661,91.383413 35.7477328,90.3647855 C36.9641367,88.8007512 38.0480609,87.0803134 38.4896597,85.1232653 C39.34877,82.5686759 40.6775808,79.7213314 43.3512606,78.6585901 C44.7844493,78.0770902 46.3220159,78.4340109 47.6869575,79.0235315 C48.4256318,79.448628 49.1321898,78.7789005 49.8106461,78.5543212 C50.2923902,78.9272832 51.147486,79.3363383 50.7299744,80.0742417 C50.5869566,80.5068576 50.4403007,80.9390976 50.2923118,81.3714158 L49.8466514,82.6690599 C48.9565539,85.2666352 48.1014582,87.8833849 47.7792918,90.6174372 C47.6026523,91.4275268 48.0924255,92.129337 48.4537335,92.8070853 C51.1515005,92.5464129 52.31973,89.7792752 53.5883228,87.7700927 C54.9492499,85.7689308 55.4028922,83.3065793 56.8922844,81.3856243 C58.0846011,79.6691969 59.9513595,78.2776074 62.1071643,78.2054212 C63.2834229,78.353804 64.6082191,78.8911901 65.0016435,80.1263762 C65.6038236,81.3334899 65.0739051,82.697007 64.5239139,83.8158931 C64.2709983,84.4575482 63.4319606,84.397393 62.9140857,84.1688034 C62.7334317,82.9697104 63.9297629,81.8347829 63.2834229,80.6918348 C62.9421874,79.9178383 61.9586266,80.2065831 61.3163011,80.2787693 C59.0962637,81.1409933 57.8356999,83.3787655 57.0327931,85.492217 C56.3744095,87.3209341 55.8926654,89.4343856 56.7116304,91.2911751 C57.3659994,92.5263611 58.9959003,92.9835404 60.2765367,92.5343818 C63.0024055,91.8044991 64.8049313,89.4303752 66.2581927,87.1725513 C67.3220443,85.7007549 67.6351779,83.8559965 68.6147243,82.336076 C69.754852,80.4552244 71.4489854,78.6505694 73.7212118,78.2936488 C75.4193597,77.9367281 77.5591065,79.1037384 77.5229756,81.008652 C77.5872082,84.3211965 74.6806854,86.9038583 71.6818284,87.7299892 C70.6581222,88.1390443 69.1847881,88.030765 68.6628987,89.1937649 C68.2935615,90.9743579 69.8913461,92.9354163 71.7781772,92.6867749 C75.2226476,92.245637 77.502903,89.1817339 79.0324405,86.3343894 C80.6061379,83.3426724 82.1878644,80.3549658 83.7936781,77.3833006 C84.0024338,76.8860179 84.6447593,76.3726938 85.1706633,76.7857593 C86.1100643,77.0865351 85.7969306,78.1813592 85.6604365,78.8992108 C85.0662854,81.3054175 85.3392737,83.803862 85.9374393,86.1779859 C86.3589654,87.8061858 86.1742968,89.4865201 86.2385294,91.1468027 C87.5560995,90.2757559 88.4039691,88.9932477 89.2105051,87.6760902 L89.6123118,87.0163685 C90.0146404,86.3572483 90.4244842,85.7051663 90.8953891,85.107224 C91.7263976,85.1433171 92.0515749,85.7809618 91.6139907,86.4707411 C90.0443078,89.4945408 87.896532,92.5223508 84.672861,93.9179507 C82.78603,94.6237713 80.3331496,94.6879368 78.7755103,93.2402024 C78.097054,92.6707335 77.8963273,91.3794026 78.9601789,91.138782 C79.9878996,91.5358061 80.7707338,92.7469301 81.9991813,92.4822474 C83.7013438,92.1694405 84.5363669,90.2484855 84.3798001,88.6684098 C84.1590007,86.8396928 83.5889368,85.0831619 83.2155851,83.2865276 C82.7097538,83.3747552 82.1517336,83.4228793 81.9831231,83.9963586 C80.2488444,87.3048927 78.4744202,90.8259751 75.3109673,93.0116128 C73.2394677,94.4753885 70.0599566,94.8042368 68.056704,93.0677576 C66.9888379,92.1493888 66.7720531,90.6896234 66.5432246,89.3822511 C64.712597,91.7924681 62.2075277,94.4352851 58.903566,94.1946644 C57.2455634,94.3069541 55.5313573,93.3885852 54.8207848,91.8686647 C54.4153168,91.0465441 54.3631279,90.1121338 54.2426918,89.217827 C53.1507385,91.4395578 51.4766778,93.921961 48.8471579,94.3430472 C47.4380564,94.6077299 46.6552222,93.2843162 45.7077921,92.5343818 C44.226429,92.7469301 43.1946937,94.2066955 41.6370545,94.2748713 C39.2323485,94.5876782 37.6265348,91.9849646 37.8112034,89.83542 C36.5867704,92.2295957 34.0696575,94.527523 31.1992656,94.154561 C30.4365041,94.0141989 29.8503821,93.316399 29.6175391,92.6025577 C28.9069665,90.5251993 29.4770304,88.3074788 29.9788472,86.2461618 C31.7010823,80.3669969 33.3791576,74.4677802 35.1214655,68.596636 C35.2178143,67.642174 36.3699856,67.3494189 37.0725291,67.874774 Z M44.2103709,80.4512141 C42.993967,80.8562589 42.2231765,81.9550933 41.6370545,83.0298656 C40.581232,85.002955 39.9148193,87.2006238 39.7743106,89.4383959 C39.7783251,90.5211889 39.8586158,91.9488715 40.9626127,92.5022991 C42.1990893,92.8712508 43.2749844,91.8806957 44.0136587,91.010451 C45.9968386,88.5641409 47.0205448,85.3077412 46.8198181,82.1676415 C46.7836873,80.9565175 45.3665567,79.8616935 44.2103709,80.4512141 Z M73.745299,80.2587176 C71.7902208,80.9685485 70.5979042,82.8494001 69.7147066,84.6219723 C69.3694567,85.1433171 69.4818637,85.7528894 69.6183578,86.318348 C72.4486044,86.190017 76.0737288,84.2329689 75.7365079,80.9685485 C75.6361446,80.0020555 74.4357988,80.1303865 73.745299,80.2587176 Z M72.9745084,36.9229358 C73.69311,37.0312151 74.4036826,37.7250046 74.1387233,38.5030115 C73.2234095,39.6860631 71.7581045,40.3678216 71.0314738,41.7152973 C69.8849229,43.9322157 69.22397,46.3416307 68.5984734,48.7505323 L68.2865959,49.9540467 C68.2344141,50.1543275 68.1819575,50.3543813 68.1289656,50.5540964 C67.9161953,51.2037722 68.0005005,51.8775101 68.0968494,52.5352066 C68.7431894,52.5793204 69.4296747,52.8119204 70.0599566,52.5231756 C74.5963802,50.7826861 79.096673,48.721369 82.9265387,45.6895487 C84.3677564,44.482435 86.0618899,42.9544938 85.7929161,40.8771354 C85.5319714,40.6124526 85.2710266,40.3477699 85.0100819,40.0870975 C84.2995094,40.1231906 83.5126607,40.0510044 82.9626695,40.5924009 C81.0758384,42.1043008 80.5138036,44.5867039 79.5583445,46.6921348 C79.1769637,47.5784209 78.1171267,47.7588864 77.2620309,47.8030002 C77.27006,46.4314624 77.8682256,45.1802349 78.3419406,43.9249971 C79.088644,42.1203421 79.9798706,40.2916251 81.4532046,38.9601907 C82.6977102,37.857346 84.6166576,37.2357426 86.1502096,38.1220287 C88.0731715,39.0323769 88.3220726,41.6190491 87.4750059,43.3555282 C85.9695556,46.4394831 82.9907712,48.3925208 80.1645391,50.1490517 C78.7594522,50.9872136 77.6273535,52.3226583 77.2259001,53.9308064 C75.9292056,58.4584853 74.6084238,63.0302779 74.2350721,67.746443 C74.0905489,69.5069842 74.4759442,71.2474737 74.4759442,73.0040045 C73.8938367,73.0721804 73.1752351,73.3970183 72.7175782,72.8435907 C72.0953254,71.9653253 72.1234272,70.8143565 72.0190493,69.7836979 C71.8424098,64.614364 73.1912932,59.549299 74.6525837,54.6406374 C74.8372523,54.1954892 74.8131651,53.7302892 74.4598861,53.3773789 C73.6730374,53.0004065 72.8821741,53.5097203 72.1475144,53.7543513 C67.4344512,55.695358 62.600952,57.383713 58.1006592,59.8019507 C55.0335551,61.5023367 52.0387126,63.8403675 50.6697564,67.1689534 C50.2482303,68.3800774 49.9551693,70.2248358 51.3080673,70.9587289 C52.853663,71.5843426 54.4835639,70.6699841 55.7642003,69.8358324 C59.3612229,67.269212 61.5732313,63.2548572 63.2151758,59.2525335 C63.4841496,58.3822888 64.3031145,57.5641785 65.2786463,57.7606854 C66.065495,58.0333888 65.7082015,58.9758197 65.4833876,59.5292473 C63.6969199,64.0047916 61.2641122,68.4602843 57.370014,71.4399702 C55.3145725,73.0040045 52.4481951,74.2030975 49.923053,73.0601493 C48.2489923,72.334277 47.5384197,70.3451462 47.8194371,68.6327291 C48.1887743,65.9618397 49.794588,63.6518813 51.6854336,61.8031125 C54.4795494,59.0079025 58.0484703,57.1992371 61.653522,55.6753063 C63.5845129,54.9333926 65.0739051,53.2289962 65.5676928,51.223824 C66.3103816,48.3083036 67.2056228,45.4328866 67.9844424,42.5253869 C67.8880936,42.3369007 67.6953959,41.9639387 67.5950326,41.7754525 C65.8527247,41.3543663 64.0542134,41.2140043 62.3159201,40.756825 C60.4009873,40.3678216 58.3134295,39.6339286 56.4145548,40.4761009 C53.793064,41.5228008 52.2916282,45.0960177 53.845253,47.5543588 C54.9813661,49.1785483 57.2736652,49.0462069 58.7469992,47.9714346 C59.4937026,47.2856657 60.8305425,47.871176 60.5093797,48.941938 C58.3174441,51.5566825 53.5240902,51.3601757 51.8058696,48.3002829 C49.742399,44.7431074 51.9544074,39.7462182 55.8324474,38.579208 C57.9965403,37.7676954 60.1606333,38.1694434 62.3346571,38.6369782 L63.1023881,38.8028536 C64.6387396,39.1325938 66.1806215,39.4278486 67.7315267,39.2850286 C69.7949973,39.3491941 71.1318372,37.5044357 72.9745084,36.9229358 Z M113.123865,43.6843765 C112.884331,44.7257292 112.563168,45.7479215 112.227286,46.7665489 L111.821443,47.988189 C111.282318,49.6174226 110.774024,51.2535005 110.570621,52.9603031 C112.068042,52.8480135 113.726045,52.4108859 115.090987,53.2771203 C116.259216,53.9267961 116.459943,55.3705201 116.520161,56.5736234 C116.61651,59.6495576 115.500469,62.5931504 114.183702,65.3161743 C113.838452,65.8936639 113.98699,66.5633914 114.083339,67.1849948 C114.89026,67.3333775 115.777472,67.3053051 116.39571,66.687712 C118.431079,64.9191502 119.390553,62.3084159 120.867901,60.1187679 C121.249282,60.3513679 121.626648,60.5919885 122,60.8486506 C121.698193,61.3449307 121.409316,61.8612881 121.121206,62.3839756 L120.775065,63.0133593 C119.559414,65.2206779 118.271501,67.4426594 116.010315,68.6608015 C114.645373,69.4067256 113.272403,68.4883567 111.943592,68.2517464 C110.225371,68.8372567 108.153872,69.434798 106.495869,68.364036 C105.06268,67.525874 105.098811,65.6129397 105.058666,64.1692157 C103.838247,65.941788 102.589727,67.8827947 100.594504,68.8653291 C99.1211696,69.6232842 96.9131758,68.736998 96.8368997,66.9523948 C96.9408053,65.2579063 97.5758518,63.6994226 98.2395712,62.1509146 L98.6014235,61.3065057 C98.8405273,60.743216 99.0713422,60.1782153 99.2697074,59.6054438 C100.14889,57.9170888 97.7281263,56.6097165 96.343112,57.0187716 C95.0022575,59.2164404 94.3157722,61.7790505 92.7179876,63.8363572 C90.9194763,66.3628741 88.3662325,69.1139704 84.9859947,68.9335049 C83.1312799,69.0818877 81.1922599,67.9349292 80.6302251,66.1262638 C79.9999432,64.4900433 80.2809606,62.7094504 80.6422687,61.0451574 C81.2805797,58.4504646 82.5973469,55.9359787 84.6969483,54.2275719 C86.1461951,53.0645721 88.3501744,52.4549997 89.9961334,53.5778961 C91.3450169,54.4160581 91.3851622,56.2648269 90.8953891,57.6123026 C89.9961334,60.1829334 87.5512821,61.9113918 84.9859947,62.5610676 C83.9823612,62.8899159 82.4849399,62.926009 82.2320243,64.2053088 C82.260126,65.3883605 82.8221608,66.7157845 83.9944048,67.1689534 C85.6483929,67.862743 87.483035,66.9724465 88.8198749,65.9778811 C91.9391679,63.4994882 93.3763712,59.6375266 94.9179523,56.0963924 C94.0668711,54.3919961 94.5887605,52.2223997 95.9617312,50.9471102 C96.6401875,50.7666447 97.6719228,50.9471102 97.8044024,51.7571998 C97.6598792,52.6595273 97.4471089,53.5498237 97.342731,54.4601719 C98.9083993,55.3785408 101.232815,55.83572 101.863096,57.732613 C101.52989,60.7243299 99.4784632,63.2187641 98.9646028,66.1663673 C98.7518325,66.8200534 99.462405,67.1849948 99.7755387,67.6381637 C102.569654,66.0420466 104.030945,62.9781435 105.596613,60.3072541 C107.146223,55.4386959 108.643645,50.5460758 110.157124,45.6654866 C110.486316,44.6468591 110.703101,43.5760972 111.245063,42.6456972 C112.011839,41.9799801 113.513275,42.5534593 113.123865,43.6843765 Z M109.310057,57.5320957 C107.788549,60.2791817 106.720683,63.6358399 107.676142,66.7438569 C108.852401,67.3935327 110.120993,66.9403637 111.092511,66.1583466 C110.956016,65.1477398 110.430112,63.9967709 111.184845,63.0944434 C111.726807,62.7134607 112.43738,62.8979366 113.055618,62.82174 C113.786263,61.0692195 114.392458,59.2284714 114.484792,57.3195475 C114.496836,56.4773752 114.380414,55.2822925 113.453057,54.9654753 C111.610386,54.5042857 110.229386,56.1886304 109.310057,57.5320957 Z M84.2352768,57.7967785 C83.665213,58.7793128 82.7619428,59.8781472 83.2998904,61.0692195 C85.7206545,60.8566713 88.3983488,59.6535679 89.2815463,57.2273096 C89.4421277,56.4853958 89.6589125,55.4306753 88.8680493,54.9694857 C86.8286659,54.5363685 85.2389104,56.2527959 84.2352768,57.7967785 Z M43.5118419,1.75622554 C44.9691179,3.74535638 44.6599987,6.46035955 43.9454116,8.67808001 C42.2151474,13.4584106 38.3250638,17.5048481 33.479521,19.1611203 C32.1306375,19.7025168 30.5810273,20.1035513 29.6576844,21.3146753 C29.0394462,22.2811683 28.842734,23.4401578 28.4774114,24.5109198 C27.9515074,26.3757299 27.2007895,28.1803849 26.8595541,30.0893089 C26.6829146,30.9074191 27.0321791,31.7896949 27.730708,32.2508845 C30.5729982,34.1678291 34.1780499,35.4030152 37.5984331,34.492667 C39.0423272,34.1485795 40.2510232,33.2954277 41.4100662,32.4109489 L41.9421591,32.0022432 C42.5242665,31.3405363 43.700525,32.0222949 43.580089,32.8524362 C43.5600163,33.6825775 42.700906,34.119705 42.1509148,34.6049567 C38.9714038,37.1194426 34.5072417,37.3720943 30.7697104,36.1088358 C28.7664578,35.5112945 27.0602808,34.2600671 25.1373189,33.4700292 C23.0778629,34.7332877 20.8819127,36.2772703 18.3286689,35.9644634 C16.3495036,35.8642048 14.2940621,34.248036 14.5550068,32.1065121 C14.7717916,29.2511469 18.1239277,27.8274746 20.6370261,28.5814194 C21.9457642,28.7338125 23.8085081,29.892802 24.7157928,28.3809021 C25.6030049,26.3396368 26.1248943,24.1580095 26.670871,22.0044545 C27.1084552,20.4323995 25.4263654,19.4739272 24.2260197,18.9405514 C21.4439475,17.7494791 19.6414216,14.942238 19.1235467,12.0387486 C18.862602,11.0923074 19.8782791,10.5589315 20.6852005,10.8115832 C21.2070899,11.3730315 21.2873806,12.1630693 21.5563544,12.8528486 C22.3713049,15.4475414 24.8603161,17.3765171 27.550054,17.6291688 C34.1499482,18.2547825 40.4728396,13.2338313 42.1870457,6.98972501 C42.6447026,5.56605274 42.4158741,3.75738741 41.0589615,2.90318405 C39.0235927,2.26152894 37.1407762,3.62504604 35.9123287,5.11689417 C33.2306199,8.35725246 31.8817364,12.4237417 30.669347,16.385962 C29.8905274,17.119855 28.4814259,16.8270999 28.4332515,15.676131 C29.1679113,12.3595762 30.5047511,9.1914041 32.1547247,6.23176992 C33.6641896,3.69723224 35.6353258,1.07847734 38.6100957,0.236305009 C40.3443745,-0.393319065 42.4279177,0.276408453 43.5118419,1.75622554 Z M18.5253811,30.2617537 C17.3651807,30.382064 16.2692129,31.7054777 16.7830733,32.8524362 C17.1363523,33.9833533 18.5133375,34.4285015 19.5731745,34.1036636 C20.9381162,33.6665361 22.6121769,33.1211293 23.0136303,31.5570949 C21.6486887,30.8111709 20.1271802,30.0572261 18.5253811,30.2617537 Z M74.4277698,4.91637695 C74.6766709,5.44574241 74.5923657,6.05531476 74.4398134,6.6007216 C72.9183049,11.6657866 71.4449709,16.7428826 69.9234624,21.8079476 C69.3293114,23.8371819 68.6548696,25.9145403 68.763262,28.0520539 C68.6749423,28.9864642 69.6384305,29.7484296 70.5176135,29.3233331 C72.4164881,28.7137607 73.5244996,26.8850437 74.5361622,25.2849163 C75.5518394,23.8131199 75.6361446,21.9483097 76.4872258,20.3922961 C77.5952373,18.214679 79.2853562,16.0009689 81.7823964,15.4074379 C82.9506259,15.0545276 84.3035239,15.3873862 85.190736,16.2175275 C86.1742968,17.1599585 86.0739335,18.7079514 85.6805091,19.8990237 C84.785268,22.4816855 82.3283731,24.2181646 79.7550567,24.8678404 C78.7554376,25.1926783 77.2861181,25.2327818 77.0131298,26.4920299 C77.037217,27.6790919 77.5952373,29.0105262 78.7674812,29.4717158 C80.0400886,30.0652468 81.4893354,29.531871 82.6495358,28.9182883 C85.2469394,27.4344609 86.66407,24.6953956 88.2698837,22.2931993 C88.6713371,22.5859545 89.6308108,22.9549061 89.068776,23.5965613 C87.370628,26.5882782 85.2308813,29.7404089 81.8707162,30.987626 C80.1685537,31.4087122 78.149243,31.4568363 76.7120397,30.2938364 C75.6441736,29.5118193 75.218633,28.1763746 75.1463714,26.9091057 C73.8536914,29.3473952 71.2161424,31.7335501 68.2574307,31.1400191 C66.9647507,30.5585192 66.6797188,29.042609 66.6757042,27.7673195 C65.7483468,29.2310952 64.5881465,30.730964 62.8819694,31.3124639 C61.721769,31.7295397 60.1561007,31.3966812 59.5659642,30.2336813 C59.0601329,29.4356227 59.1203509,28.4570987 59.1323945,27.5587815 C58.309415,29.042609 57.1773163,30.4743019 55.5915753,31.1841329 C54.3671424,31.7696432 52.5887038,31.5129811 51.9303201,30.2176399 C51.3682854,29.275209 51.4525906,28.1402815 51.560983,27.0975919 C50.4449425,29.3874986 48.1606725,31.825788 45.3464841,31.1480398 C43.9373826,30.4502399 43.6162198,28.6736573 43.7446849,27.249985 C44.0337314,23.4401578 45.3023242,19.7827237 46.6552222,16.2375792 C46.8318617,15.4274897 47.7792918,15.4114483 48.4055591,15.6721207 C48.8993468,16.3699206 48.5420533,17.1679791 48.2931522,17.8818205 C47.1530245,20.9216615 46.0209258,24.0096267 45.6194724,27.249985 C45.4869928,28.088147 45.6756759,29.182971 46.5147135,29.5960365 C47.6628703,29.7564503 48.4938789,28.7699056 49.208466,28.0279918 C50.4650152,26.5321334 51.5690121,24.8598197 52.2715556,23.0270923 C53.1025641,19.8990237 54.0901395,16.8110585 54.9291772,13.6829898 C54.0018198,13.5145554 53.0383316,13.486483 52.1310469,13.2097692 C51.440547,12.8969623 51.4967505,11.9545314 52.1350614,11.6216728 C53.2430728,11.2286591 54.5277238,11.7379728 55.5835463,11.1845453 C56.4265984,9.31171443 56.6152816,7.20628361 57.4984791,5.34949414 C57.9922668,4.85221144 58.7028393,5.15699761 59.3010049,5.18507002 C59.4086889,6.23625207 59.1349782,7.22082631 58.8124754,8.19897487 L58.5666467,8.93232181 C58.2812994,9.78868176 58.0222577,10.6516413 58.0123395,11.5615177 C59.7305601,11.4091246 61.5732313,11.7379728 63.2071467,11.1845453 C64.0501989,9.31973512 64.2428965,7.22232499 65.1100359,5.36553552 C65.5998091,4.84419075 66.3264398,5.15699761 66.9286199,5.18507002 C67.1534338,7.40279049 65.6841143,9.32775581 65.6399544,11.5254246 C65.8665247,11.5456016 66.1474598,11.5389125 66.4447295,11.5340284 L66.7026454,11.5309528 C67.6998574,11.5259846 68.7561111,11.6289416 68.52239,12.8568589 C67.7234977,14.0880346 66.0695096,13.5065347 64.8571203,13.626845 C64.0783006,15.6079552 63.592542,17.6893239 62.9341584,19.7105375 C62.1834405,22.3212717 61.2922139,24.9279956 61.0312692,27.6470091 C60.9148477,28.4210056 61.2641122,29.1428676 61.5371005,29.8446779 C64.4476378,29.7083262 65.7162306,26.6083299 66.9647507,24.4307129 C68.8355236,18.1825963 70.5858606,11.8943762 72.452619,5.64625963 C72.5489678,4.67575628 73.7171972,4.39102183 74.4277698,4.91637695 Z M57.2295053,13.6388761 C56.2901043,16.1172689 55.6598224,18.6959204 54.8569156,21.2144167 C54.789242,21.4703148 54.7184369,21.7266495 54.6460886,21.9834553 L54.4260023,22.7553208 C53.7983075,24.9464741 53.1738699,27.1741704 53.5281048,29.4596848 C54.25875,29.6842641 55.0897586,29.9369158 55.7280695,29.3554158 C57.5225663,27.9999194 58.5783888,25.9145403 59.5980805,23.9655129 C60.601714,20.5366685 61.601333,17.107824 62.5608067,13.6669485 C60.7984262,13.2258106 59.0119585,13.7471554 57.2295053,13.6388761 Z M82.1677917,17.2963102 C79.9276816,18.1384825 78.6992342,20.4123478 77.7839204,22.4776752 C77.8802692,22.6942338 78.0689523,23.127351 78.1612866,23.3439096 C80.9513878,23.1834958 84.4721343,21.2424891 84.1710443,18.0382239 C84.0947681,17.0476688 82.8743497,17.1559481 82.1677917,17.2963102 Z M50.4730442,10.8155936 C50.4770588,11.1163694 50.4810733,11.7139107 50.4850878,12.0146866 C49.7705007,12.7285279 48.8832887,13.0293037 48.0000912,12.4077003 C47.8314807,11.6216728 47.6588558,10.482735 48.6022713,10.1177937 C49.3409456,9.68868681 49.9591839,10.378466 50.4730442,10.8155936 Z" id="Combined-Shape-Copy" fill="#76805D" fill-rule="nonzero"></path>
    </g>
</svg>